<svg id="Layer_1" data-name="Layer 1" xmlns="http://www.w3.org/2000/svg" viewBox="0 0 90.35 100" width="90.35" height="100"><g class="nc-icon-wrapper" fill="#0b5fff"><title>Reminder 1</title><path d="M74.63 27.05c-1.08-.49-2.17-.92-3.25-1.3 1.21-.34 2.44-.73 3.65-1.19 9.12-3.47 17.18-10.08 14.94-16C89.32 6.87 87.24 4 80.59 4a36.2 36.2 0 0 0-12.4 2.54 35.46 35.46 0 0 0-11 6.37V9.16a9.17 9.17 0 0 0-18.33 0v18.57a9.07 9.07 0 0 0-10.27 1.86A9.14 9.14 0 0 0 13.5 33 9 9 0 0 0 .06 40.92v2.89H0V71.4a28.61 28.61 0 0 0 57.21 0V38.59a38 38 0 0 0 9.53 6 34.45 34.45 0 0 0 13.46 3.3c5.73 0 7.73-2.53 8.4-4s1.28-5-3-9.46a35.27 35.27 0 0 0-10.97-7.38zm-16.18-7.28c1-2.19 5-5.69 11.65-8.19a30.68 30.68 0 0 1 10.48-2.2c3 0 4.24.76 4.37 1.1.39 1-3.07 5.73-11.83 9.06a30.84 30.84 0 0 1-10.48 2.19c-3 0-4.24-.76-4.37-1.11a1.41 1.41 0 0 1 .18-.85zm-6.61 7.13h-7.59v-3.63h7.59zM48.05 5.37a3.79 3.79 0 0 1 3.79 3.79v8.74h-7.59V9.16a3.8 3.8 0 0 1 3.8-3.79zm-13 26.89a3.8 3.8 0 0 1 3.79 3.8v7.09a41.81 41.81 0 0 0-5.14-.6c-.63 0-1.49 0-2.45.08v-6.57a3.8 3.8 0 0 1 3.84-3.8zm-16.76 3.8a3.8 3.8 0 1 1 7.59 0v8.12c-2.05 1.27-3.65 3.52-3.65 7.53a6.73 6.73 0 0 0 3.65 6.18v4.76a3.8 3.8 0 0 1-7.59 0zM5.43 40.92a3.69 3.69 0 1 1 7.38 0V58a3.69 3.69 0 1 1-7.38 0zM51.84 71.4a23.24 23.24 0 0 1-46.47 0v-5.16a8.94 8.94 0 0 0 8.2-.35 9.16 9.16 0 0 0 17.72-3.24v-2.83l1.23.28c2.09.48 4.47 1 5.33 1.88 1.75 1.75 1.67 8 1.07 11.73a2.68 2.68 0 0 0 2.22 3.08 3.13 3.13 0 0 0 .43 0 2.7 2.7 0 0 0 2.65-2.25c.32-2 1.73-12.09-2.58-16.39-1.94-1.95-5-2.65-7.92-3.32-4.29-1-6.08-1.64-6.08-3.16 0-3.08 1.14-3.79 6-3.8.18 0 18.2 1 18.2 10.83v12.7zm0-23.14A23.33 23.33 0 0 0 45 44.7l-.76-.25V32.26h7.59v16zm31.86-6.58c-.12.28-1.15.87-3.5.87a29.35 29.35 0 0 1-11.26-2.83C60.4 35.88 57.22 31 57.67 30c.12-.29 1.14-.87 3.49-.87A29.35 29.35 0 0 1 72.43 32a30.35 30.35 0 0 1 9.26 6.17c1.84 1.88 2.15 3.2 2.01 3.51z"/></g></svg>