<svg xmlns="http://www.w3.org/2000/svg" xmlns:xlink="http://www.w3.org/1999/xlink" version="1.1" x="0px" y="0px" viewBox="0 0 100 125" enable-background="new 0 0 100 100" xml:space="preserve"><path d="M79.454,27.048c-1.083-0.486-2.167-0.916-3.246-1.299c1.213-0.342,2.434-0.729,3.649-1.191  c9.122-3.47,17.182-10.075,14.937-15.982c-0.647-1.703-2.726-4.56-9.383-4.56c-3.683,0-8.086,0.903-12.395,2.541  c-4.44,1.686-8.265,3.938-10.981,6.369V9.163C62.035,4.111,57.929,0,52.876,0c-5.055,0-9.168,4.111-9.168,9.163v18.565  c-1.157-0.531-2.441-0.834-3.795-0.834c-2.528,0-4.82,1.029-6.48,2.691c-1.66-1.662-3.952-2.691-6.48-2.691  c-3.975,0-7.357,2.549-8.623,6.097c-1.301-0.723-2.794-1.139-4.382-1.139c-4.999,0-9.064,4.066-9.064,9.064v2.895H4.826v27.586  C4.826,87.169,17.658,100,33.433,100c15.773,0,28.603-12.831,28.603-28.603v-8.75v-3.903v-8.303v-6.63v-5.221  c2.593,2.312,5.955,4.417,9.53,6.025c4.743,2.129,9.523,3.301,13.462,3.301c5.732,0,7.725-2.53,8.398-4.038  c0.72-1.594,1.279-4.943-3.021-9.462C87.787,31.66,83.897,29.043,79.454,27.048z M63.277,19.775  c0.983-2.19,5.047-5.693,11.645-8.199c3.72-1.414,7.443-2.191,10.489-2.191c2.953,0,4.235,0.755,4.365,1.097  c0.391,1.025-3.072,5.729-11.825,9.059c-3.717,1.411-7.44,2.188-10.487,2.188c-2.955,0-4.236-0.755-4.369-1.104  C63.053,20.515,63.074,20.225,63.277,19.775z M56.668,26.895h-7.59v-3.622h7.59V26.895z M52.876,5.368  c2.091,0,3.792,1.702,3.792,3.795v8.741h-7.59V9.163C49.078,7.07,50.781,5.368,52.876,5.368z M39.913,32.263  c2.092,0,3.795,1.704,3.795,3.799v7.087c-2.842-0.498-4.933-0.593-5.138-0.6c-0.638,0-1.496,0.003-2.452,0.082v-6.569  C36.118,33.967,37.821,32.263,39.913,32.263z M23.158,36.062c0-2.095,1.701-3.799,3.794-3.799c2.092,0,3.797,1.704,3.797,3.799  v8.121c-2.055,1.267-3.65,3.521-3.65,7.53c0,3.094,1.556,4.953,3.65,6.173v4.762c0,2.092-1.705,3.795-3.797,3.795  c-2.093,0-3.794-1.703-3.794-3.795V36.062z M10.253,40.917c0-2.038,1.656-3.696,3.695-3.696c2.034,0,3.689,1.658,3.689,3.696v17.092  c0,2.034-1.655,3.69-3.689,3.69c-2.039,0-3.695-1.656-3.695-3.69V40.917z M56.668,71.397c0,12.812-10.422,23.232-23.235,23.232  c-12.814,0-23.237-10.421-23.237-23.232v-5.153c1.146,0.525,2.412,0.823,3.752,0.823c1.614,0,3.131-0.431,4.445-1.174  c1.315,3.452,4.651,5.917,8.56,5.917c5.054,0,9.166-4.111,9.166-9.163v-2.829c0.417,0.1,0.829,0.195,1.225,0.286  c2.096,0.479,4.473,1.024,5.329,1.879c1.75,1.751,1.673,8.032,1.073,11.725c-0.238,1.464,0.755,2.844,2.216,3.083  c0.146,0.023,0.293,0.037,0.436,0.037c1.292,0,2.429-0.936,2.646-2.251c0.325-1.98,1.731-12.083-2.576-16.39  c-1.946-1.946-4.985-2.644-7.926-3.317c-4.282-0.979-6.073-1.637-6.073-3.157c0-3.086,1.14-3.796,5.993-3.8  c0.185,0.009,18.208,1.014,18.208,10.831v3.903V71.397z M56.668,48.255c-1.721-1.331-3.932-2.553-6.831-3.555  c-0.252-0.087-0.508-0.169-0.76-0.248v-8.391v-3.799h7.59v11.549V48.255z M88.53,41.681c-0.128,0.282-1.15,0.868-3.503,0.868  c-3.148,0-7.256-1.032-11.263-2.83c-8.543-3.84-11.723-8.736-11.271-9.734c0.124-0.284,1.147-0.869,3.498-0.869  c3.153,0,7.258,1.031,11.265,2.83c3.766,1.691,7.141,3.94,9.261,6.171C88.353,40.048,88.67,41.371,88.53,41.681z"/><text x="0" y="115" fill="#000000" font-size="5px" font-weight="bold" font-family="'Helvetica Neue', Helvetica, Arial-Unicode, Arial, Sans-serif">Created by Ryan Sun</text><text x="0" y="120" fill="#000000" font-size="5px" font-weight="bold" font-family="'Helvetica Neue', Helvetica, Arial-Unicode, Arial, Sans-serif">from the Noun Project</text></svg>