<?xml version="1.0" standalone="no"?>
<!DOCTYPE svg PUBLIC "-//W3C//DTD SVG 20010904//EN"
 "http://www.w3.org/TR/2001/REC-SVG-20010904/DTD/svg10.dtd">
<svg version="1.0" xmlns="http://www.w3.org/2000/svg"
 width="500.000000pt" height="500.000000pt" viewBox="0 0 500.000000 500.000000"
 preserveAspectRatio="xMidYMid meet">
<metadata>
Created by potrace 1.11, written by Peter Selinger 2001-2013
</metadata>
<g transform="translate(0.000000,500.000000) scale(0.100000,-0.100000)"
fill="#000000" stroke="none">
<path d="M2628 4985 c-2 -1 -25 -5 -53 -8 -163 -18 -313 -147 -371 -317 -17
-50 -18 -96 -19 -542 0 -268 -4 -490 -7 -494 -4 -3 -30 2 -58 11 -127 42 -296
10 -401 -76 l-47 -38 -38 31 c-153 123 -369 134 -535 27 -64 -41 -144 -131
-165 -185 l-16 -42 -37 15 c-89 38 -188 48 -291 28 -63 -11 -155 -63 -211
-118 -64 -63 -95 -118 -120 -207 -16 -60 -17 -129 -15 -930 1 -476 5 -877 9
-892 4 -16 9 -38 11 -50 61 -345 270 -678 561 -892 229 -169 526 -272 800
-278 396 -9 758 132 1034 401 263 256 397 534 437 911 3 25 5 422 6 883 0 460
2 837 5 837 2 0 30 -19 61 -43 304 -231 646 -372 978 -403 200 -19 324 4 431
79 157 110 156 327 -2 522 -22 27 -51 60 -65 73 -87 81 -113 103 -180 153
-150 109 -305 192 -495 264 -15 5 0 14 69 36 112 36 146 51 281 119 382 194
583 416 570 632 -8 133 -110 240 -272 284 -137 37 -421 21 -623 -35 -261 -73
-541 -210 -715 -350 l-40 -33 -7 139 c-9 190 -41 270 -149 367 -61 55 -103 78
-179 99 -51 15 -136 27 -142 22z m103 -278 c28 -15 54 -40 73 -70 l29 -47 1
-240 c1 -205 -1 -239 -14 -242 -8 -2 -94 -4 -190 -3 l-175 0 0 245 0 245 30
45 c59 87 157 114 246 67z m1670 -189 c55 -14 89 -36 89 -57 0 -27 -49 -92
-119 -158 -36 -35 -68 -63 -72 -63 -3 0 -17 -9 -30 -21 -115 -99 -433 -234
-661 -279 -211 -42 -428 -26 -451 33 -16 41 112 185 240 270 137 91 351 187
518 232 174 48 391 66 486 43z m-1581 -684 c12 -3 15 -20 13 -81 0 -43 -2 -83
-2 -88 -1 -7 -67 -10 -186 -10 -156 0 -186 2 -189 15 -4 13 -1 162 3 166 3 3
348 1 361 -2z m640 -309 c14 -3 39 -8 55 -10 192 -34 479 -162 655 -293 129
-97 188 -154 230 -228 39 -67 38 -82 -6 -100 -65 -27 -204 -23 -371 11 -357
73 -764 316 -877 525 -33 60 -25 83 31 99 37 10 230 8 283 -4z m-2038 -145
c34 -18 78 -61 96 -95 13 -25 16 -70 16 -260 l1 -229 -24 -21 c-80 -68 -128
-146 -150 -244 -13 -60 -7 -187 12 -239 20 -58 64 -119 107 -150 19 -14 40
-31 45 -38 6 -7 10 -65 10 -142 -2 -148 -14 -183 -79 -236 -34 -28 -44 -31
-110 -31 -64 0 -77 3 -108 27 -20 15 -47 45 -59 65 l-24 38 0 710 c0 662 1
713 18 748 23 47 51 74 102 98 43 19 107 19 147 -1z m655 -13 c35 -19 80 -69
95 -106 5 -14 10 -105 10 -201 0 -237 1 -222 -19 -216 -46 14 -174 27 -274 27
l-86 0 2 187 c1 158 4 193 19 225 19 38 83 90 121 99 36 8 101 1 132 -15z
m754 15 c0 -9 0 -753 0 -774 -1 -14 -14 -9 -68 26 -88 56 -141 83 -233 117
l-75 27 -2 293 c-1 162 0 299 2 306 4 12 374 17 376 5z m-2033 -277 c21 -14
46 -39 57 -57 19 -31 20 -55 23 -510 3 -463 2 -479 -18 -517 -32 -64 -109
-111 -172 -105 -55 5 -116 41 -145 85 l-28 43 -3 458 c-2 303 1 471 8 497 32
122 174 175 278 106z m1248 -509 c17 -2 44 -6 60 -10 16 -3 45 -8 64 -11 77
-13 229 -58 308 -92 213 -92 326 -212 349 -373 9 -59 8 -709 0 -776 -38 -294
-153 -524 -361 -725 -136 -133 -367 -254 -539 -285 -17 -2 -33 -6 -36 -8 -27
-17 -284 -27 -361 -15 -25 4 -63 11 -85 14 -69 12 -217 63 -297 104 -287 146
-503 406 -591 711 -36 124 -39 146 -44 361 l-5 196 59 -20 c89 -30 236 -22
314 18 15 8 30 15 33 15 2 0 19 -26 36 -57 125 -222 408 -296 631 -166 92 53
167 148 204 258 10 31 18 90 19 158 2 59 5 109 7 111 7 7 231 -53 275 -73 87
-41 119 -147 118 -386 -1 -60 -4 -133 -8 -162 -16 -120 -6 -163 48 -198 58
-38 147 -23 183 31 55 85 63 472 13 654 -59 211 -155 292 -430 365 -358 95
-393 114 -386 208 2 29 10 64 17 80 16 36 66 66 120 73 24 4 46 8 47 9 5 4
194 -3 238 -9z"/>
</g>
</svg>
